<svg width="430" height="860" viewBox="0 0 430 860" fill="none" xmlns="http://www.w3.org/2000/svg">
<path d="M109.504 241C106.528 236.2 101.008 233.656 95.296 233.656C92.176 233.656 89.152 234.568 86.32 236.152L84.64 233.08C86.608 232.12 89.008 231.352 91.216 231.208V231.064C84.304 228.904 78.64 224.056 78.64 214.888C78.64 207.592 81.952 202.792 88.144 202.792C91.696 202.792 93.904 204.52 94.912 207.352H95.152C96.208 204.52 98.56 202.792 102.112 202.792C105.856 202.792 108.064 204.52 109.072 207.352H109.312C110.368 204.52 112.72 202.792 116.128 202.792C122.32 202.792 125.632 208.024 125.632 215.752C125.632 219.832 124.768 223.288 122.992 226.648L119.344 225.304C120.832 222.184 121.312 219.4 121.312 215.704C121.312 209.512 119.248 206.296 115.792 206.296C112.912 206.296 111.232 208.552 111.232 212.536V220.264H107.2V212.536C107.2 208.936 105.76 206.296 102.112 206.296C98.752 206.296 97.072 208.552 97.072 212.536V220.264H93.04V212.536C93.04 208.936 91.6 206.296 88.432 206.296C85.024 206.296 82.96 209.08 82.96 214.888C82.96 223.816 89.344 227.896 96.208 229.384C102.688 230.776 109.792 233.32 112.72 239.272L109.504 241Z" fill="#BFB9B9" fill-opacity="0.7"/>
<path d="M42.656 104C37.544 104 33.8 100.364 33.8 94.316C33.8 88.304 37.004 85.28 42.188 84.596C44.96 84.236 46.076 82.904 46.076 81.032C46.076 79.16 44.816 77.864 42.62 77.864C40.388 77.864 39.236 79.052 39.236 80.96C39.236 81.32 39.308 81.716 39.38 82.148H36.284C36.14 81.572 36.068 80.996 36.068 80.456C36.068 77.468 38.66 75.344 42.62 75.344C46.508 75.344 49.244 77.576 49.244 80.744C49.244 82.94 48.164 84.704 45.824 85.424V85.532C49.892 86.684 51.656 90.284 51.656 94.316C51.656 100.364 48.2 104 42.656 104ZM42.728 101.372C46.616 101.372 48.38 98.528 48.38 94.316C48.38 90.104 46.616 87.368 42.692 87.368C38.768 87.368 37.076 90.104 37.076 94.316C37.076 98.528 38.804 101.372 42.728 101.372ZM62.5342 95.36C58.0342 95.36 54.5422 92.876 54.5422 88.052C54.5422 87.008 54.7942 85.928 55.0102 85.352H58.0342C57.8542 86 57.7102 86.972 57.7102 88.052C57.7102 91.112 59.6182 92.732 62.5342 92.732C65.4502 92.732 67.2502 91.112 67.2502 87.872C67.2502 85.388 65.9902 84.02 64.6222 82.652C62.8942 80.924 60.9142 79.088 60.9142 75.704H64.0822C64.0822 77.792 65.4142 79.232 66.8902 80.708C68.6542 82.472 70.5262 84.452 70.5262 87.872C70.5262 92.372 67.1062 95.36 62.5342 95.36ZM83.048 95.36C77.972 95.36 74.48 92.012 74.48 85.388C74.48 79.124 77.648 75.704 82.436 75.704C85.424 75.704 87.224 76.964 88.412 78.548H88.628C88.556 78.044 88.412 76.892 88.412 76.1V74.444C88.412 71.816 86.972 69.8 83.444 69.8C80.708 69.8 78.8 71.132 78.8 73.076C78.8 73.364 78.8 73.652 78.872 73.94H75.812C75.668 73.472 75.632 73.04 75.632 72.644C75.632 69.476 79.124 67.28 83.444 67.28C88.556 67.28 91.58 70.268 91.58 74.732V85.388C91.58 92.012 88.556 95.36 83.048 95.36ZM83.048 92.732C86.972 92.732 88.448 90.068 88.448 86V85.424C88.448 80.996 87.152 78.332 82.868 78.332C79.448 78.332 77.756 81.248 77.756 85.46C77.756 90.068 79.448 92.732 83.048 92.732ZM104.089 95.36C99.5889 95.36 96.0969 92.876 96.0969 88.052C96.0969 87.008 96.3489 85.928 96.5649 85.352H99.5889C99.4089 86 99.2649 86.972 99.2649 88.052C99.2649 91.112 101.173 92.732 104.089 92.732C107.005 92.732 108.805 91.112 108.805 87.872C108.805 85.388 107.545 84.02 106.177 82.652C104.449 80.924 102.469 79.088 102.469 75.704H105.637C105.637 77.792 106.969 79.232 108.445 80.708C110.209 82.472 112.081 84.452 112.081 87.872C112.081 92.372 108.661 95.36 104.089 95.36ZM118.159 95C116.683 91.652 116.035 88.808 116.035 85.064V83.696C116.035 74.804 119.167 70.124 125.575 68.756C128.275 68.18 130.975 67.712 133.567 67.28L134.107 70.052C131.587 70.448 128.059 70.952 126.187 71.384C123.199 72.068 120.355 73.4 119.023 77.756H119.131C120.535 75.74 121.939 75.344 123.487 75.344C125.935 75.344 127.591 76.64 128.347 78.764H128.527C129.319 76.64 131.083 75.344 133.639 75.344C138.463 75.344 140.947 79.268 140.947 85.064C140.947 88.808 140.227 91.652 138.751 95H135.511C137.023 91.616 137.707 88.844 137.707 85.028C137.707 80.384 136.159 77.972 133.387 77.972C131.227 77.972 129.967 79.664 129.967 82.652V88.448H126.943V82.652C126.943 79.952 125.863 77.972 123.487 77.972C120.751 77.972 119.203 80.384 119.203 85.028C119.203 88.844 119.887 91.616 121.399 95H118.159ZM154.374 83.408C154.374 85.892 156.03 87.62 157.758 89.492C159.486 91.364 161.178 93.416 161.178 96.476C161.178 101.192 157.686 104 152.682 104C147.75 104 144.366 101.012 144.366 96.548C144.366 95.18 144.582 94.244 144.906 93.416H147.93C147.678 94.172 147.534 95.216 147.534 96.26C147.534 99.068 149.226 101.372 152.682 101.372C155.598 101.372 157.902 99.644 157.902 96.692C157.902 94.1 156.462 92.408 154.878 90.716C153.114 88.808 151.206 86.576 151.206 83.624V82.292L144.726 81.14V78.512L151.206 79.664V75.38H154.374V80.24L160.818 81.392V84.02L154.374 82.868V83.408ZM167.168 95C165.692 91.652 164.972 88.808 164.972 85.064C164.972 79.268 167.456 75.344 172.28 75.344C174.944 75.344 176.6 76.64 177.356 78.764H177.536C178.328 76.64 180.092 75.344 182.648 75.344C187.472 75.344 189.956 79.268 189.956 85.064C189.956 88.808 189.236 91.652 187.76 95H184.52C186.032 91.616 186.716 88.844 186.716 85.028C186.716 80.384 185.168 77.972 182.396 77.972C180.236 77.972 178.976 79.664 178.976 82.652V88.448H175.952V82.652C175.952 79.952 174.872 77.972 172.496 77.972C169.76 77.972 168.212 80.384 168.212 85.028C168.212 88.844 168.896 91.616 170.408 95H167.168ZM204.886 75.524C208.99 76.352 211.762 79.808 211.762 85.316C211.762 91.724 208.27 95.36 202.762 95.36C197.65 95.36 193.906 91.724 193.906 85.316C193.906 79.34 196.93 75.812 201.862 75.38C202.114 74.948 202.294 74.372 202.294 73.58C202.294 72.68 201.79 72.14 201.106 71.6C200.098 70.808 198.91 69.872 198.91 67.64H202.078C202.078 68.756 202.69 69.476 203.446 70.124C204.418 70.952 205.39 71.852 205.39 73.364C205.39 74.228 205.21 74.912 204.886 75.524ZM202.834 92.732C206.722 92.732 208.486 89.888 208.486 85.316C208.486 80.744 206.722 78.008 202.798 78.008C198.874 78.008 197.182 80.744 197.182 85.316C197.182 89.888 198.91 92.732 202.834 92.732ZM223.55 95.36C219.05 95.36 215.558 92.876 215.558 88.052C215.558 87.008 215.81 85.928 216.026 85.352H219.05C218.87 86 218.726 86.972 218.726 88.052C218.726 91.112 220.634 92.732 223.55 92.732C226.466 92.732 228.266 91.112 228.266 87.872C228.266 85.388 227.006 84.02 225.638 82.652C223.91 80.924 221.93 79.088 221.93 75.704H225.098C225.098 77.792 226.43 79.232 227.906 80.708C229.67 82.472 231.542 84.452 231.542 87.872C231.542 92.372 228.122 95.36 223.55 95.36Z" fill="#BFB9B9" fill-opacity="0.7"/>
<path d="M376.152 67.36C371.544 67.36 367.98 63.724 367.98 57.316C367.98 50.944 371.22 47.344 376.188 47.344C378.888 47.344 381.516 48.676 382.524 51.412H382.74C383.568 48.676 385.512 47.344 388.752 47.344C393.252 47.344 395.736 51.268 395.736 56.704C395.736 60.808 395.016 63.652 393.54 67H390.3C391.812 63.616 392.496 60.844 392.496 57.028C392.496 52.384 390.948 49.972 388.464 49.972C386.016 49.972 384.396 51.664 384.396 55.372V57.316C384.396 63.724 381.12 67.36 376.152 67.36ZM376.224 64.732C379.572 64.732 381.12 61.888 381.12 57.316C381.12 52.744 379.572 50.008 376.188 50.008C372.768 50.008 371.256 52.744 371.256 57.316C371.256 61.888 372.804 64.732 376.224 64.732Z" fill="#BFB9B9" fill-opacity="0.7"/>
<path d="M280.96 423.524C285.064 424.352 287.836 427.808 287.836 433.316C287.836 439.724 284.344 443.36 278.836 443.36C273.724 443.36 269.98 439.724 269.98 433.316C269.98 427.34 273.004 423.812 277.936 423.38C278.188 422.948 278.368 422.372 278.368 421.58C278.368 420.68 277.864 420.14 277.18 419.6C276.172 418.808 274.984 417.872 274.984 415.64H278.152C278.152 416.756 278.764 417.476 279.52 418.124C280.492 418.952 281.464 419.852 281.464 421.364C281.464 422.228 281.284 422.912 280.96 423.524ZM278.908 440.732C282.796 440.732 284.56 437.888 284.56 433.316C284.56 428.744 282.796 426.008 278.872 426.008C274.948 426.008 273.256 428.744 273.256 433.316C273.256 437.888 274.984 440.732 278.908 440.732Z" fill="#BFB9B9" fill-opacity="0.7"/>
<path d="M149.792 443.36C145.292 443.36 141.8 440.876 141.8 436.052C141.8 435.008 142.052 433.928 142.268 433.352H145.292C145.112 434 144.968 434.972 144.968 436.052C144.968 439.112 146.876 440.732 149.792 440.732C152.708 440.732 154.508 439.112 154.508 435.872C154.508 433.388 153.248 432.02 151.88 430.652C150.152 428.924 148.172 427.088 148.172 423.704H151.34C151.34 425.792 152.672 427.232 154.148 428.708C155.912 430.472 157.784 432.452 157.784 435.872C157.784 440.372 154.364 443.36 149.792 443.36Z" fill="#BFB9B9" fill-opacity="0.7"/>
<path d="M75.728 417C74.144 413.976 70.4 412.068 67.628 412.068C65.612 412.068 64.136 412.5 62.192 413.4L61.112 411.168C62.228 410.628 63.56 410.16 65.756 410.052V409.944C60.824 407.604 57.98 403.716 57.98 397.776C57.98 392.376 60.464 388.344 65.144 388.344C68.204 388.344 70.256 389.676 71.084 392.412H71.264C72.272 389.676 74.828 388.344 77.528 388.344C82.496 388.344 85.736 391.944 85.736 398.136C85.736 404.364 82.172 408 77.564 408C72.596 408 69.32 404.364 69.32 398.136V396.372C69.32 392.664 67.7 390.972 65.252 390.972C62.768 390.972 61.22 393.384 61.22 397.704C61.22 404.544 64.892 407.28 69.068 409.08C73.244 410.88 76.34 412.212 78.14 415.704L75.728 417ZM77.492 405.372C80.912 405.372 82.46 402.528 82.46 398.136C82.46 393.744 80.948 391.008 77.528 391.008C74.144 391.008 72.596 393.744 72.596 398.136C72.596 402.528 74.144 405.372 77.492 405.372Z" fill="#BFB9B9" fill-opacity="0.7"/>
<path d="M255.712 319C246.944 319 240.928 313.688 240.928 305.752C240.928 303.32 241.312 301.656 241.888 300.184H247.264C246.816 301.528 246.56 303.384 246.56 305.24C246.56 310.232 249.568 314.328 255.712 314.328C262.304 314.328 264.928 309.592 264.928 302.36V273.368C261.664 274.84 257.824 275.864 253.92 276.376V276.568C256.352 277.656 258.4 280.088 258.4 283.416C258.4 288.792 254.048 292.376 248.416 292.376C242.848 292.376 238.944 288.792 238.944 284.056C238.944 283.288 239.008 282.456 239.264 281.688H244.064C243.936 282.328 243.872 282.904 243.872 283.416C243.872 286.168 245.664 288.024 248.416 288.024C251.36 288.024 253.152 285.976 253.152 283.224C253.152 279.384 251.232 277.592 247.968 277.144V273.112C254.368 272.28 260.512 271.064 265.376 268.696H270.56V302.616C270.56 313.048 265.12 319 255.712 319Z" fill="#BFB9B9" fill-opacity="0.7"/>
<path d="M43.96 829C38.48 829 34.72 825.28 34.72 819.92C34.72 818.4 35.08 816.96 35.44 816.04H38.8C38.52 816.88 38.24 818.44 38.24 819.6C38.24 823.12 40.12 826.08 43.96 826.08C48.08 826.08 49.6 822.8 49.6 819.36C49.6 817 48.92 815.44 48.04 813.88C47.04 812.12 45.96 810 45.56 807.64H45.44C44.12 809.36 42.32 810.04 40.08 810.04C37.32 810.04 34 808 34 803.8C34 799.48 37.36 797.56 40.84 797.56H44.92V788.6H48.36V797.56H53.24V800.48H48.36V804.72C48.36 807.8 49.68 809.92 51.08 812.24C52.28 814.2 53.24 816.52 53.24 819.52C53.24 824.96 49.84 829 43.96 829ZM41.12 807.16C43.76 807.16 44.92 805.28 44.92 803.28V800.48H41.24C38.72 800.48 37.52 801.84 37.52 803.8C37.52 805.96 39 807.16 41.12 807.16Z" fill="#BFB9B9" fill-opacity="0.7"/>
<path d="M200.656 800C195.544 800 191.8 796.364 191.8 790.316C191.8 784.304 195.004 781.28 200.188 780.596C202.96 780.236 204.076 778.904 204.076 777.032C204.076 775.16 202.816 773.864 200.62 773.864C198.388 773.864 197.236 775.052 197.236 776.96C197.236 777.32 197.308 777.716 197.38 778.148H194.284C194.14 777.572 194.068 776.996 194.068 776.456C194.068 773.468 196.66 771.344 200.62 771.344C204.508 771.344 207.244 773.576 207.244 776.744C207.244 778.94 206.164 780.704 203.824 781.424V781.532C207.892 782.684 209.656 786.284 209.656 790.316C209.656 796.364 206.2 800 200.656 800ZM200.728 797.372C204.616 797.372 206.38 794.528 206.38 790.316C206.38 786.104 204.616 783.368 200.692 783.368C196.768 783.368 195.076 786.104 195.076 790.316C195.076 794.528 196.804 797.372 200.728 797.372ZM221.913 800C216.981 800 213.597 796.652 213.597 791.468C213.597 790.1 213.921 788.804 214.245 787.976H217.269C217.017 788.732 216.765 790.136 216.765 791.18C216.765 794.708 218.457 797.372 221.913 797.372C225.621 797.372 227.097 794.708 227.097 790.64V779.696C227.097 776.06 225.621 773.972 222.525 773.972C219.717 773.972 217.809 775.592 217.809 778.652C217.809 779.732 217.953 780.704 218.133 781.352H215.109C214.893 780.776 214.641 779.696 214.641 778.652C214.641 773.828 218.133 771.344 222.525 771.344C227.205 771.344 230.265 774.332 230.265 779.552V790.784C230.265 796.652 227.205 800 221.913 800ZM243.841 791.36C238.333 791.36 235.309 788.012 235.309 781.388V770.192C235.309 765.548 238.117 763.64 241.789 763.64H250.285V766.304H242.221C239.917 766.304 238.477 767.312 238.477 770.084V771.344C238.477 772.064 238.333 773.576 238.261 774.188H238.477C239.665 772.604 241.465 771.344 244.453 771.344C249.241 771.344 252.409 774.764 252.409 781.388C252.409 788.012 248.917 791.36 243.841 791.36ZM243.841 788.732C247.441 788.732 249.133 786.068 249.133 781.46C249.133 776.888 247.441 773.972 244.021 773.972C239.737 773.972 238.441 776.636 238.441 780.992V782C238.441 786.068 239.917 788.732 243.841 788.732ZM264.198 791.36C259.698 791.36 256.206 788.876 256.206 784.052C256.206 783.008 256.458 781.928 256.674 781.352H259.698C259.518 782 259.374 782.972 259.374 784.052C259.374 787.112 261.282 788.732 264.198 788.732C267.114 788.732 268.914 787.112 268.914 783.872C268.914 781.388 267.654 780.02 266.286 778.652C264.558 776.924 262.578 775.088 262.578 771.704H265.746C265.746 773.792 267.078 775.232 268.554 776.708C270.318 778.472 272.19 780.452 272.19 783.872C272.19 788.372 268.77 791.36 264.198 791.36ZM286.692 800C279.24 800 276.144 794.564 276.144 785.312C276.144 780.128 277.476 775.088 279.384 771.704H282.552C280.68 775.124 279.312 780.2 279.312 785.24C279.312 792.764 281.22 797.336 286.728 797.336C290.724 797.336 292.92 795.32 292.92 791.252C292.92 788.264 291.192 785.528 287.124 785.528H285.504V782.9H287.88C290.94 782.9 292.2 781.676 292.2 779.732C292.2 778.04 291.444 777.068 290.508 776.384C289.032 775.268 287.664 774.188 287.664 771.704H290.832C290.904 772.964 291.912 773.792 293.064 774.692C294.396 775.736 295.476 776.996 295.476 779.372C295.476 782.324 293.46 783.512 290.76 784.16V784.304C293.46 784.808 296.196 787.004 296.196 791.648C296.196 796.508 292.704 800 286.692 800ZM308.476 800C303.184 800 299.8 796.652 299.8 792.188C299.8 790.82 300.124 789.524 300.448 788.696H303.472C303.22 789.452 302.968 790.856 302.968 791.9C302.968 794.708 304.66 797.372 308.476 797.372C312.112 797.372 313.84 794.708 313.84 791.36C313.84 788.12 312.076 785.744 308.188 785.744H306.784V783.116H308.44C311.86 783.116 313.228 780.92 313.228 778.328C313.228 775.988 311.644 773.972 308.692 773.972C305.704 773.972 304.12 775.592 304.12 778.22C304.12 778.832 304.192 779.516 304.408 780.272H301.312C301.06 779.48 300.952 778.688 300.952 777.968C300.952 774.188 304.12 771.344 308.692 771.344C313.228 771.344 316.396 774.332 316.396 778.112C316.396 781.46 314.38 783.692 311.356 784.34V784.484C314.38 784.952 317.116 787.256 317.116 791.504C317.116 796.652 313.696 800 308.476 800ZM328.007 791.36C323.507 791.36 320.015 788.876 320.015 784.052C320.015 783.008 320.267 781.928 320.483 781.352H323.507C323.327 782 323.183 782.972 323.183 784.052C323.183 787.112 325.091 788.732 328.007 788.732C330.923 788.732 332.723 787.112 332.723 783.872C332.723 781.388 331.463 780.02 330.095 778.652C328.367 776.924 326.387 775.088 326.387 771.704H329.555C329.555 773.792 330.887 775.232 332.363 776.708C334.127 778.472 335.999 780.452 335.999 783.872C335.999 788.372 332.579 791.36 328.007 791.36ZM363.101 800C360.869 796.4 356.729 794.492 352.445 794.492C350.105 794.492 347.837 795.176 345.713 796.364L344.453 794.06C345.929 793.34 347.729 792.764 349.385 792.656V792.548C344.201 790.928 339.953 787.292 339.953 780.416C339.953 774.944 342.437 771.344 347.081 771.344C349.745 771.344 351.401 772.64 352.157 774.764H352.337C353.129 772.64 354.893 771.344 357.557 771.344C360.365 771.344 362.021 772.64 362.777 774.764H362.957C363.749 772.64 365.513 771.344 368.069 771.344C372.713 771.344 375.197 775.268 375.197 781.064C375.197 784.124 374.549 786.716 373.217 789.236L370.481 788.228C371.597 785.888 371.957 783.8 371.957 781.028C371.957 776.384 370.409 773.972 367.817 773.972C365.657 773.972 364.397 775.664 364.397 778.652V784.448H361.373V778.652C361.373 775.952 360.293 773.972 357.557 773.972C355.037 773.972 353.777 775.664 353.777 778.652V784.448H350.753V778.652C350.753 775.952 349.673 773.972 347.297 773.972C344.741 773.972 343.193 776.06 343.193 780.416C343.193 787.112 347.981 790.172 353.129 791.288C357.989 792.332 363.317 794.24 365.513 798.704L363.101 800ZM386.936 800C382.004 800 378.62 796.652 378.62 791.468C378.62 790.1 378.944 788.804 379.268 787.976H382.292C382.04 788.732 381.788 790.136 381.788 791.18C381.788 794.708 383.48 797.372 386.936 797.372C390.644 797.372 392.12 794.708 392.12 790.64V779.696C392.12 776.06 390.644 773.972 387.548 773.972C384.74 773.972 382.832 775.592 382.832 778.652C382.832 779.732 382.976 780.704 383.156 781.352H380.132C379.916 780.776 379.664 779.696 379.664 778.652C379.664 773.828 383.156 771.344 387.548 771.344C392.228 771.344 395.288 774.332 395.288 779.552V790.784C395.288 796.652 392.228 800 386.936 800Z" fill="#BFB9B9" fill-opacity="0.7"/>
<path d="M353.48 525C349.592 525 346.928 523.368 346.928 520.584C346.928 520.272 346.952 519.96 347.024 519.624H349.016C348.992 519.864 348.968 520.104 348.968 520.32C348.968 522.336 350.744 523.248 353.48 523.248C356.24 523.248 357.632 521.688 357.632 519.72C357.632 518.208 356.816 516.696 354.728 516.696H354.128V514.944H355.232C356.792 514.944 358.184 513.48 358.184 511.152C358.184 509.016 357.248 507.648 355.688 507.648C354.056 507.648 352.928 508.776 352.928 511.248V511.824C352.928 515.376 350.768 517.8 347.6 517.8C344.432 517.8 342.32 515.376 342.32 511.824C342.32 508.296 344.432 505.896 347.624 505.896C349.304 505.896 351.056 506.784 351.728 508.608H351.872C352.424 506.952 353.72 505.896 355.76 505.896C358.64 505.896 360.296 508.272 360.296 510.888C360.296 513.84 358.952 515.328 356.936 515.76V515.856C358.808 516.336 359.816 517.704 359.816 519.816C359.816 522.768 357.296 525 353.48 525ZM347.648 516.048C349.76 516.048 350.792 514.152 350.792 511.824C350.792 509.496 349.76 507.672 347.624 507.672C345.464 507.672 344.456 509.496 344.456 511.824C344.456 514.152 345.488 516.048 347.648 516.048Z" fill="#BFB9B9" fill-opacity="0.7"/>
<path d="M205.376 591.32C200.864 591.32 197.76 588.344 197.76 582.776C197.76 577.528 200.576 574.488 204.832 574.488C207.488 574.488 209.088 575.608 210.144 577.016H210.336C210.272 576.568 210.144 575.544 210.144 574.84V571.768C210.144 569.752 209.184 568.6 207.616 568.6C206.176 568.6 205.184 569.496 205.184 571.064V572.408H202.464V571.064C202.464 569.432 201.376 568.664 200.224 568.664C199.424 568.664 198.656 568.92 197.952 569.144L197.248 567C198.048 566.648 199.04 566.36 200.256 566.36C201.568 566.36 202.976 566.776 203.776 568.696H203.872C204.704 566.776 206.368 566.36 207.84 566.36C210.592 566.36 212.96 568.056 212.96 571.704V582.776C212.96 588.344 210.272 591.32 205.376 591.32ZM205.376 588.984C208.864 588.984 210.176 586.616 210.176 583.32V582.808C210.176 579.192 209.024 576.824 205.216 576.824C202.176 576.824 200.672 579.416 200.672 582.84C200.672 586.616 202.176 588.984 205.376 588.984Z" fill="#BFB9B9" fill-opacity="0.7"/>
<path d="M87.68 669C83.46 669 81.1 666.14 81.1 660.9C81.1 656.34 83.24 653.52 86.9 653.14C86.84 652.62 86.8 652.1 86.8 651.74V650.8H88.56V651.7C88.56 652.04 88.52 652.62 88.46 653.12C92.12 653.5 94.26 656.34 94.26 660.92C94.26 665.78 91.96 669 87.68 669ZM87.68 667.54C90.76 667.54 92.44 665.26 92.44 660.92C92.44 657.06 91.1 654.92 88.46 654.52C88.52 655.08 88.56 655.66 88.56 656.22V660.36H86.8V656.18C86.8 655.64 86.84 655.08 86.9 654.54C84.26 654.94 82.92 657.08 82.92 660.92C82.92 665.24 84.62 667.54 87.68 667.54Z" fill="#BFB9B9" fill-opacity="0.7"/>
<path d="M87.96 604C83.82 604 82.1 600.98 82.1 595.84C82.1 592.96 82.84 590.16 83.9 588.28H85.66C84.62 590.18 83.86 593 83.86 595.8C83.86 599.98 84.92 602.52 87.98 602.52C90.2 602.52 91.42 601.4 91.42 599.14C91.42 597.48 90.46 595.96 88.2 595.96H87.3V594.5H88.62C90.32 594.5 91.02 593.82 91.02 592.74C91.02 591.8 90.6 591.26 90.08 590.88C89.26 590.26 88.5 589.66 88.5 588.28H90.26C90.3 588.98 90.86 589.44 91.5 589.94C92.24 590.52 92.84 591.22 92.84 592.54C92.84 594.18 91.72 594.84 90.22 595.2V595.28C91.72 595.56 93.24 596.78 93.24 599.36C93.24 602.06 91.3 604 87.96 604Z" fill="#BFB9B9" fill-opacity="0.7"/>
<path d="M329.692 708C324.4 708 321.016 704.652 321.016 699.468C321.016 698.1 321.34 696.804 321.664 695.976H324.688C324.436 696.732 324.184 698.136 324.184 699.18C324.184 702.708 325.876 705.372 329.692 705.372C333.4 705.372 334.876 702.708 334.876 698.64V685.932C334.876 683.412 333.94 681.972 331.996 681.972C330.16 681.972 329.152 683.412 329.152 685.86V690.504H326.128V685.932C326.128 683.412 325.084 682.152 323.176 682.152H320.476V679.524H323.068C325.408 679.524 326.92 680.46 327.604 682.692H327.748C328.576 680.46 330.124 679.344 332.392 679.344C335.92 679.344 338.044 681.864 338.044 685.392V698.784C338.044 704.652 334.984 708 329.692 708Z" fill="#BFB9B9" fill-opacity="0.7"/>
</svg>
