<svg width="720" height="440" viewBox="0 0 720 440" fill="none" xmlns="http://www.w3.org/2000/svg">
<path d="M205.228 333.194L166.099 109.562H191.91L206.858 209.819C211.474 241.07 218.032 279.264 220.066 302.437H220.56C222.392 280.034 229.298 241.693 233.768 210.68L248.99 109.581H274.471L235.178 333.194H205.228Z" fill="white"/>
<path d="M382.019 228.779V333.194H358.131V109.562H397.37C431.094 109.562 447.69 124.052 447.69 161.019V171.241C447.69 201.613 436.974 214.069 424.829 218.319C439.062 223.576 445.694 234.274 445.694 264.188C445.694 283.294 445.364 319.07 447.892 333.176H424.609C421.77 319.235 422.264 281.646 422.264 265.984C422.264 237.004 418.179 228.76 395.922 228.76H382.019V228.779ZM382.019 208.574H396.692C418.014 208.574 423.602 196.282 423.602 172.395V162.448C423.602 142.023 418.014 129.786 395.519 129.786H382.019V208.574Z" fill="white"/>
<path d="M501.656 131.6H465.331V109.562H561.668V131.6H525.562V333.194H501.675V131.6H501.656Z" fill="white"/>
<path d="M359.798 299.268C358.901 298.443 357.362 298.7 357.362 298.7C357.362 298.7 357.106 298.333 355.897 297.014C354.669 295.677 351.006 295.421 351.006 295.421C350.346 293.497 348.771 294.322 348.569 294.432C348.643 294.285 349.046 293.406 348.551 292.618C348.02 291.757 339.502 283.88 339.502 283.88C339.502 283.88 339.831 279.997 339.721 278.055C339.612 276.131 337.67 269.537 337.908 268.896C338.164 268.255 338.311 266.752 337.981 265.122C337.89 264.628 337.89 264.078 337.963 263.455C340.454 270.746 344.1 279.923 344.997 274.611C345.986 268.767 343.825 252.116 342.451 242.737C342.634 241.931 342.707 241.143 342.744 240.52C345.583 240.594 348.459 240.411 351.335 239.898C351.335 239.898 356.355 203.224 355.64 180.949C355.365 172.468 354.34 165.946 353.167 161.019C353.424 161.11 353.717 161.165 354.01 161.165C355.475 161.165 357.838 157.501 358.883 153.178C359.908 148.855 357.619 143.909 357.619 143.909C357.765 143.689 357.325 141.876 357.325 141.876C355.31 141.766 353.204 141.986 351.116 142.352C350.859 142.407 350.603 142.444 350.346 142.499L349.613 142.663C349.632 142.554 349.65 142.444 349.668 142.352C349.705 142.187 349.723 142.041 349.723 141.912C349.87 140.136 348.862 138.853 348.624 138.56L350.859 140.154C350.859 140.154 350.859 140.136 350.841 140.117C350.822 140.081 350.786 140.026 350.749 139.952C350.419 139.403 349.485 137.772 348.441 136.051C348.423 136.014 348.404 135.996 348.386 135.959C348.166 135.611 347.965 135.263 347.745 134.933C347.745 134.915 347.727 134.915 347.727 134.896C346.17 132.423 347.159 127.239 347.159 127.239C347.159 127.239 347.434 127.148 347.891 127.001C347.891 127.001 347.891 127.001 347.91 126.983C349.064 126.598 351.317 125.829 352.728 125.298C354.706 124.547 356.428 121.597 355.787 121.341C355.274 121.139 350.163 119.894 347.928 119.344C347.91 119.344 347.891 119.344 347.891 119.326C347.873 119.326 347.873 119.326 347.873 119.326C347.25 119.179 346.866 119.088 346.866 119.088C346.866 119.088 347.434 117.457 346.279 116.56C345.107 115.68 344.264 116.212 344.264 116.212C344.264 116.212 344.594 115.461 344.264 115.168C344.136 115.058 343.587 114.471 342.964 113.775C341.975 112.695 340.784 111.376 340.784 111.376C337.743 108.848 330.8 108.445 324.7 112.859C318.582 117.274 319.241 126.635 319.241 126.635L315.651 130.976L315.596 131.013L315.413 131.233L315.376 131.288C315.303 131.379 315.248 131.489 315.175 131.599C314.918 132.02 314.717 132.24 314.515 132.314L314.497 132.332L313.856 133.12C317.648 135.354 323.931 134.896 325.158 134.787C325.287 134.768 325.36 134.768 325.36 134.768L325.305 136.783V138.542C325.305 138.542 326.587 138.652 327.192 138.652C327.796 138.652 327.558 139.476 327.686 139.897C327.796 140.337 328.419 140.282 328.529 140.923C328.657 141.509 329.445 141.381 329.848 142.755C330.251 144.111 332.156 143.506 333.896 142.517C335.6 141.546 335.435 142.554 335.636 143.598C335.746 144.092 336.113 144.605 336.442 145.136C336.442 145.136 336.442 145.136 336.461 145.155C336.479 145.191 336.497 145.228 336.534 145.301C336.589 145.393 336.626 145.539 336.644 145.723L336.479 145.759L336.003 146.932L335.82 147.426L335.765 147.554C335.765 147.554 335.746 147.609 335.691 147.719L335.325 147.976L335.307 147.994C334.83 148.562 334.189 149.918 330.397 159.864C328.511 164.829 326.972 169.793 325.909 173.512H325.946C325.451 175.252 324.939 177.212 324.371 179.282C324.297 179.502 324.261 179.667 324.242 179.777C324.224 179.813 324.224 179.832 324.224 179.85C324.224 179.868 324.224 179.868 324.224 179.886H324.206C324.059 180.07 323.821 180.289 323.528 180.564C323.235 180.601 322.923 180.656 322.832 180.747C322.612 180.931 322.667 180.949 322.154 181.755C322.154 181.755 322.154 181.773 322.136 181.773C321.641 182.579 321.403 182.744 321.018 183.074C320.615 183.404 320.414 183.275 320.304 183.807C320.194 184.356 319.48 184.631 319.241 184.814C319.003 184.979 317.428 185.803 317.135 186.041C316.86 186.28 316.036 186.811 316.036 187.012C316.036 187.214 315.266 187.763 315.12 187.928C314.992 188.075 314.57 188.185 314.204 188.331C313.911 188.46 313.288 189.211 313.086 189.467C312.922 189.394 312.702 189.339 312.39 189.394C311.511 189.54 309.313 189.98 309.313 189.98C309.313 189.98 308.818 190.09 308.873 190.694C308.232 190.859 308.232 190.969 308.232 190.969C308.214 190.969 308.214 190.969 308.214 190.969C306.95 190.987 305.301 190.639 305.026 190.383C304.257 189.632 302.755 187.654 302.37 187.654C302.004 187.654 299.549 187.635 299.384 187.69C299.238 187.727 298.981 187.837 298.981 187.837C298.981 187.837 296.6 187.727 296.343 187.782C296.087 187.837 295.776 188.35 295.776 188.35C295.776 188.35 295.574 189.229 295.464 189.412C295.354 189.595 295.244 189.723 295.482 189.833C295.721 189.925 296.417 189.833 296.6 189.76C296.746 189.687 296.746 189.449 297.021 189.412C297.333 189.375 297.827 189.577 297.864 189.723C297.919 189.852 297.882 190.017 297.498 190.035C297.131 190.035 295.299 190.145 294.219 190.346C294.219 190.346 287.258 187.232 287.019 187.012C286.8 186.793 287.514 186.353 287.715 186.225C287.972 186.078 289.566 185.254 289.566 185.254C289.566 185.254 290.207 185.419 290.28 185.419C290.243 185.4 289.584 185.162 289.529 185.162C289.309 185.217 287.587 186.115 287.587 186.115C287.587 186.115 286.653 186.518 286.745 187.049C286.8 187.379 287.514 187.672 288.503 188.111C289.163 188.405 291.672 189.687 291.672 189.687C291.672 189.687 291.288 190.2 291.324 190.383C291.379 190.566 291.746 191.592 291.855 191.647C291.965 191.72 292.094 191.757 292.094 191.757C292.094 191.757 292.02 192.471 292.35 192.654C292.698 192.838 294.219 193.607 294.219 193.607C294.219 193.607 294.567 194.175 295.116 194.651C295.647 195.164 295.867 195.219 295.867 195.219C295.867 195.219 295.922 195.567 296.618 195.585C297.333 195.622 298.981 196.025 299.439 196.062C299.879 196.098 301.967 196.666 301.967 196.666L305.887 195.933L306.272 195.86L306.419 195.824L308.104 195.494C308.104 195.53 308.195 195.622 309.258 195.64C309.258 195.64 309.313 196.172 309.771 196.172C310.082 196.172 312.134 196.043 313.251 195.97C313.27 195.97 313.288 195.97 313.288 195.97C313.416 196.062 313.544 196.135 313.673 196.135C313.966 196.153 314.186 196.135 314.497 196.117C314.625 196.135 314.753 196.172 314.845 196.172C315.028 196.172 316.109 196.117 316.897 196.08C316.97 196.08 317.043 196.062 317.098 196.062C317.245 196.062 317.391 196.043 317.52 196.025H317.666C317.684 196.025 317.721 196.025 317.758 196.007C318.509 195.933 319.296 195.805 319.974 195.457C320.066 195.421 320.139 195.402 320.139 195.402C319.022 199.762 317.978 203.884 317.19 207.126C316.567 209.654 316.072 211.651 315.816 212.86C314.57 218.538 312.555 225.005 311.896 228.339C311.896 228.339 312.152 229.731 312.189 230.922C312.207 231.398 312.207 231.838 312.134 232.131C311.877 233.175 308.342 237.846 307.041 242.041C305.741 246.254 299.806 258.436 301.216 262.649C301.234 262.649 301.234 262.686 301.234 262.704C301.528 263.455 302.425 264.737 303.726 266.313C303.03 268.713 301.344 275.6 304.66 276.132C307.389 276.571 309.478 274.868 310.522 273.75C312.335 275.619 314.222 277.524 316.017 279.301C315.761 279.52 315.523 279.868 315.669 280.326C315.743 280.583 316.201 280.455 316.86 280.143C321.22 284.448 324.774 287.819 324.774 287.819C324.774 287.819 326.019 301.356 325.69 305.551C325.378 309.764 322.832 310.68 322.667 312.402C322.52 314.142 324.939 315.479 325.048 316.45C325.158 317.421 324.352 317.586 323.381 317.861C322.411 318.117 323.217 319.363 321.165 321.14C320.982 321.305 320.78 321.47 320.56 321.634C318.362 323.375 314.735 325.555 314.735 325.555C314.735 325.555 313.05 325.701 311.09 325.921C310.723 325.976 310.339 326.013 309.972 326.049C309.331 326.122 308.672 326.214 308.067 326.306C306.968 326.471 305.997 326.635 305.484 326.8C305.448 326.819 305.411 326.819 305.374 326.837C303.488 327.496 301.308 329.988 307.902 332.351C310.137 333.157 314.277 333.322 318.838 333.138C328.016 332.772 338.952 331.05 339.96 330.501C341.48 329.676 339.392 322.569 339.392 322.569C350.749 313.153 360.714 300.092 359.798 299.268ZM344.759 137.827C345.345 137.827 345.767 138.67 346.628 140.374C346.866 140.832 347.177 141.308 347.507 141.729C347.653 141.912 347.782 142.096 347.91 142.242C348.02 142.37 348.13 142.499 348.221 142.609C348.221 142.609 348.294 142.663 348.368 142.755C348.404 142.81 348.459 142.865 348.514 142.92C348.276 142.993 348.038 143.048 347.782 143.121C347.708 143.14 347.635 143.158 347.562 143.176C347.543 143.121 347.543 143.085 347.543 143.048C347.525 142.975 347.525 142.938 347.525 142.938L346.408 143.213C346.334 143.048 346.206 142.737 346.06 142.352C346.005 142.187 345.931 142.022 345.858 141.857C345.235 140.227 344.374 137.864 344.759 137.827ZM339.392 258.546C340.198 256.512 340.766 249.625 341.48 246.016C343.074 255.89 345.345 271.662 344.026 273.42C342.872 274.959 340.253 267.723 338.348 261.642C338.604 260.652 338.97 259.608 339.392 258.546ZM304.385 274.538C303.304 271.369 304.752 267.522 304.752 267.522C306.199 269.189 307.976 271.094 309.862 273.054C308.067 274.611 305.118 276.699 304.385 274.538Z" fill="white"/>
</svg>
