<svg width="735" height="400" viewBox="0 0 735 400" fill="none" xmlns="http://www.w3.org/2000/svg">
<g clip-path="url(#clip0_6_19)">
<path fill-rule="evenodd" clip-rule="evenodd" d="M155.728 236.02C159.458 236.02 162.91 238.12 164.66 241.53C166.333 244.8 166.266 248.65 164.478 251.85L164.42 251.96L148.728 279.26C146.949 282.35 143.747 284.27 140.324 284.31H140.208H122.285L129.737 302.04L129.766 302.09L129.814 302.17C131.564 305.47 131.526 309.39 129.708 312.63L129.651 312.74L113.958 340.04C112.18 343.13 108.978 345.05 105.555 345.09H105.439H83.4489L67.6412 362.43L67.6123 362.46C66.1219 364.03 64.1123 364.91 62.0162 364.91C61.4969 364.91 60.9681 364.85 60.4489 364.74C57.8912 364.2 55.7662 362.37 54.7469 359.86L54.7181 359.79L46.4008 339.93L46.3527 339.85L46.3046 339.77C46.3046 339.77 46.2854 339.74 46.2854 339.73C44.5354 336.43 44.5739 332.51 46.3912 329.27L46.4489 329.16L61.67 302.68L50.4585 275.98L50.6604 275.87V275.85C50.1796 273.39 50.5642 270.83 51.7854 268.59L51.8527 268.47L51.9104 268.36L67.6027 241.06C69.3816 237.97 72.5835 236.05 76.0066 236H155.737L155.728 236.02ZM73.3335 344.89H56.6604L61.5546 356.67V356.7C61.6508 356.91 61.7758 357.03 61.9777 357.07C62.1508 357.11 62.295 357.07 62.4296 356.94L62.4489 356.92L73.3335 344.89ZM120.987 304.39H70.5931C70.5354 304.39 70.4777 304.39 70.4296 304.39H70.4104L84.2277 337.26H105.43C106.305 337.26 107.141 336.77 107.622 336L107.66 335.94L123.372 308.62C123.843 307.81 123.891 306.86 123.526 306.01C123.093 305.03 122.103 304.39 120.997 304.39H120.987ZM65.3527 311.14L52.8816 333C52.3816 333.87 52.3527 334.89 52.8046 335.79L52.8527 335.88L52.8816 335.92L52.9296 336.01L53.0258 336.16L53.1412 336.31L53.2469 336.44L53.2662 336.46L53.3335 336.54L53.4008 336.6C53.795 336.97 54.2758 337.2 54.8143 337.25H54.9296L54.9969 337.26H55.0835H76.2469L65.3527 311.13V311.14ZM62.0739 284.36L67.5546 297.43L67.6604 297.39C68.6027 297.06 69.5931 296.88 70.5931 296.87H70.7469H119.603L114.362 284.37H62.0835L62.0739 284.36ZM155.583 243.64H105.007L118.833 276.52H140.026C140.901 276.52 141.737 276.03 142.218 275.25L142.257 275.19L157.968 247.87C158.439 247.06 158.487 246.11 158.122 245.26C157.699 244.3 156.737 243.66 155.66 243.63H155.593L155.583 243.64ZM97.2662 243.64H76.1893C75.3239 243.64 74.4873 244.12 74.0066 244.9L73.9681 244.96L58.295 272.28C57.8239 273.1 57.7758 274.04 58.1508 274.89C58.5643 275.85 59.5258 276.49 60.5931 276.51H60.6604H111.045L97.2566 243.63L97.2662 243.64Z" fill="#4B39EF"/>
<path d="M192.892 284.28V302.04H223.996V314.52H192.892V339H177.34V271.8H228.124V284.28H192.892ZM233.756 267.768H248.732V339H233.756V267.768ZM310.823 287.352V339H296.615V332.856C294.631 335.096 292.263 336.824 289.511 338.04C286.759 339.192 283.783 339.768 280.583 339.768C273.799 339.768 268.423 337.816 264.455 333.912C260.487 330.008 258.503 324.216 258.503 316.536V287.352H273.479V314.328C273.479 322.648 276.967 326.808 283.943 326.808C287.527 326.808 290.407 325.656 292.583 323.352C294.759 320.984 295.847 317.496 295.847 312.888V287.352H310.823ZM354.17 336.504C352.698 337.592 350.874 338.424 348.698 339C346.586 339.512 344.346 339.768 341.978 339.768C335.834 339.768 331.066 338.2 327.674 335.064C324.346 331.928 322.682 327.32 322.682 321.24V300.024H314.714V288.504H322.682V275.928H337.658V288.504H350.522V300.024H337.658V321.048C337.658 323.224 338.202 324.92 339.29 326.136C340.442 327.288 342.042 327.864 344.09 327.864C346.458 327.864 348.474 327.224 350.138 325.944L354.17 336.504ZM390.923 336.504C389.451 337.592 387.627 338.424 385.451 339C383.339 339.512 381.099 339.768 378.731 339.768C372.587 339.768 367.819 338.2 364.427 335.064C361.099 331.928 359.435 327.32 359.435 321.24V300.024H351.467V288.504H359.435V275.928H374.411V288.504H387.275V300.024H374.411V321.048C374.411 323.224 374.955 324.92 376.043 326.136C377.195 327.288 378.795 327.864 380.843 327.864C383.211 327.864 385.227 327.224 386.891 325.944L390.923 336.504ZM444.488 313.368C444.488 313.56 444.392 314.904 444.2 317.4H405.128C405.832 320.6 407.496 323.128 410.12 324.984C412.744 326.84 416.008 327.768 419.912 327.768C422.6 327.768 424.968 327.384 427.016 326.616C429.128 325.784 431.08 324.504 432.872 322.776L440.84 331.416C435.976 336.984 428.872 339.768 419.528 339.768C413.704 339.768 408.552 338.648 404.072 336.408C399.592 334.104 396.136 330.936 393.704 326.904C391.272 322.872 390.056 318.296 390.056 313.176C390.056 308.12 391.24 303.576 393.608 299.544C396.04 295.448 399.336 292.28 403.496 290.04C407.72 287.736 412.424 286.584 417.608 286.584C422.664 286.584 427.24 287.672 431.336 289.848C435.432 292.024 438.632 295.16 440.936 299.256C443.304 303.288 444.488 307.992 444.488 313.368ZM417.704 297.912C414.312 297.912 411.464 298.872 409.16 300.792C406.856 302.712 405.448 305.336 404.936 308.664H430.376C429.864 305.4 428.456 302.808 426.152 300.888C423.848 298.904 421.032 297.912 417.704 297.912ZM464.923 294.168C466.715 291.672 469.115 289.784 472.123 288.504C475.195 287.224 478.715 286.584 482.683 286.584V300.408C481.019 300.28 479.899 300.216 479.323 300.216C475.035 300.216 471.675 301.432 469.243 303.864C466.811 306.232 465.595 309.816 465.595 314.616V339H450.619V287.352H464.923V294.168ZM504.074 284.28V302.04H535.178V314.52H504.074V339H488.522V271.8H539.306V284.28H504.074ZM544.939 267.768H559.915V339H544.939V267.768ZM594.55 339.768C589.11 339.768 584.214 338.648 579.862 336.408C575.574 334.104 572.214 330.936 569.782 326.904C567.35 322.872 566.134 318.296 566.134 313.176C566.134 308.056 567.35 303.48 569.782 299.448C572.214 295.416 575.574 292.28 579.862 290.04C584.214 287.736 589.11 286.584 594.55 286.584C599.99 286.584 604.854 287.736 609.142 290.04C613.43 292.28 616.79 295.416 619.222 299.448C621.654 303.48 622.87 308.056 622.87 313.176C622.87 318.296 621.654 322.872 619.222 326.904C616.79 330.936 613.43 334.104 609.142 336.408C604.854 338.648 599.99 339.768 594.55 339.768ZM594.55 327.48C598.39 327.48 601.526 326.2 603.958 323.64C606.454 321.016 607.702 317.528 607.702 313.176C607.702 308.824 606.454 305.368 603.958 302.808C601.526 300.184 598.39 298.872 594.55 298.872C590.71 298.872 587.542 300.184 585.046 302.808C582.55 305.368 581.302 308.824 581.302 313.176C581.302 317.528 582.55 321.016 585.046 323.64C587.542 326.2 590.71 327.48 594.55 327.48ZM710.578 287.352L691.858 339H677.458L665.842 306.936L653.842 339H639.442L620.818 287.352H634.93L647.122 322.296L659.794 287.352H672.466L684.754 322.296L697.33 287.352H710.578Z" fill="black"/>
<path d="M411.194 233.152L403.13 225.664C396.73 230.656 389.242 233.152 380.666 233.152C375.802 233.152 371.418 232.384 367.514 230.848C363.61 229.248 360.538 227.04 358.298 224.224C356.122 221.408 355.034 218.24 355.034 214.72C355.034 210.56 356.186 206.912 358.49 203.776C360.858 200.576 364.634 197.536 369.818 194.656C367.386 192.16 365.626 189.792 364.538 187.552C363.45 185.248 362.906 182.88 362.906 180.448C362.906 177.184 363.77 174.304 365.498 171.808C367.226 169.312 369.658 167.392 372.794 166.048C375.994 164.64 379.674 163.936 383.834 163.936C389.658 163.936 394.33 165.344 397.85 168.16C401.37 170.912 403.13 174.656 403.13 179.392C403.13 182.848 402.074 185.92 399.962 188.608C397.914 191.296 394.586 193.888 389.978 196.384L402.266 207.808C403.738 204.736 404.858 201.248 405.626 197.344L417.626 201.088C416.346 207.04 414.298 212.128 411.482 216.352L419.354 223.648L411.194 233.152ZM383.834 174.112C381.594 174.112 379.802 174.688 378.458 175.84C377.178 176.992 376.538 178.464 376.538 180.256C376.538 181.6 376.89 182.88 377.594 184.096C378.298 185.248 379.674 186.816 381.722 188.8C384.986 187.072 387.258 185.536 388.538 184.192C389.818 182.784 390.458 181.28 390.458 179.68C390.458 178.016 389.882 176.672 388.73 175.648C387.578 174.624 385.946 174.112 383.834 174.112ZM381.722 221.44C386.394 221.44 390.586 220.128 394.298 217.504L378.074 202.336C375.066 204.064 372.922 205.76 371.642 207.424C370.362 209.088 369.722 210.976 369.722 213.088C369.722 215.584 370.81 217.6 372.986 219.136C375.162 220.672 378.074 221.44 381.722 221.44Z" fill="black"/>
<path d="M69.9301 129.152C65.3861 129.152 61.1941 128.32 57.3541 126.656C53.5781 124.928 50.4741 122.496 48.0421 119.36L56.6821 108.992C60.3301 113.92 64.4901 116.384 69.1621 116.384C75.4981 116.384 78.6661 112.672 78.6661 105.248V73.28H55.0501V60.8H94.1221V104.384C94.1221 112.64 92.0741 118.848 87.9781 123.008C83.8821 127.104 77.8661 129.152 69.9301 129.152ZM171.116 60.8V128H158.348L124.844 87.2V128H109.484V60.8H122.348L155.756 101.6V60.8H171.116ZM216.103 60.8C222.055 60.8 227.207 61.792 231.559 63.776C235.975 65.76 239.367 68.576 241.735 72.224C244.103 75.872 245.287 80.192 245.287 85.184C245.287 90.112 244.103 94.432 241.735 98.144C239.367 101.792 235.975 104.608 231.559 106.592C227.207 108.512 222.055 109.472 216.103 109.472H202.567V128H187.015V60.8H216.103ZM215.239 96.8C219.911 96.8 223.463 95.808 225.895 93.824C228.327 91.776 229.543 88.896 229.543 85.184C229.543 81.408 228.327 78.528 225.895 76.544C223.463 74.496 219.911 73.472 215.239 73.472H202.567V96.8H215.239ZM305.832 102.368C305.832 102.56 305.736 103.904 305.544 106.4H266.472C267.176 109.6 268.84 112.128 271.464 113.984C274.088 115.84 277.352 116.768 281.256 116.768C283.944 116.768 286.312 116.384 288.36 115.616C290.472 114.784 292.424 113.504 294.216 111.776L302.184 120.416C297.32 125.984 290.216 128.768 280.872 128.768C275.048 128.768 269.896 127.648 265.416 125.408C260.936 123.104 257.48 119.936 255.048 115.904C252.616 111.872 251.4 107.296 251.4 102.176C251.4 97.12 252.584 92.576 254.952 88.544C257.384 84.448 260.68 81.28 264.84 79.04C269.064 76.736 273.768 75.584 278.952 75.584C284.008 75.584 288.584 76.672 292.68 78.848C296.776 81.024 299.976 84.16 302.28 88.256C304.648 92.288 305.832 96.992 305.832 102.368ZM279.048 86.912C275.656 86.912 272.808 87.872 270.504 89.792C268.2 91.712 266.792 94.336 266.28 97.664H291.72C291.208 94.4 289.8 91.808 287.496 89.888C285.192 87.904 282.376 86.912 279.048 86.912ZM330.107 83.168C331.899 80.672 334.299 78.784 337.307 77.504C340.379 76.224 343.899 75.584 347.867 75.584V89.408C346.203 89.28 345.083 89.216 344.507 89.216C340.219 89.216 336.859 90.432 334.427 92.864C331.995 95.232 330.779 98.816 330.779 103.616V128H315.803V76.352H330.107V83.168ZM381.263 128.768C375.759 128.768 370.799 127.648 366.383 125.408C362.031 123.104 358.607 119.936 356.111 115.904C353.679 111.872 352.463 107.296 352.463 102.176C352.463 97.056 353.679 92.48 356.111 88.448C358.607 84.416 362.031 81.28 366.383 79.04C370.799 76.736 375.759 75.584 381.263 75.584C386.703 75.584 391.439 76.736 395.471 79.04C399.567 81.28 402.543 84.512 404.399 88.736L392.783 94.976C390.095 90.24 386.223 87.872 381.167 87.872C377.263 87.872 374.031 89.152 371.471 91.712C368.911 94.272 367.631 97.76 367.631 102.176C367.631 106.592 368.911 110.08 371.471 112.64C374.031 115.2 377.263 116.48 381.167 116.48C386.287 116.48 390.159 114.112 392.783 109.376L404.399 115.712C402.543 119.808 399.567 123.008 395.471 125.312C391.439 127.616 386.703 128.768 381.263 128.768ZM436.941 128.768C431.501 128.768 426.605 127.648 422.253 125.408C417.965 123.104 414.605 119.936 412.173 115.904C409.741 111.872 408.525 107.296 408.525 102.176C408.525 97.056 409.741 92.48 412.173 88.448C414.605 84.416 417.965 81.28 422.253 79.04C426.605 76.736 431.501 75.584 436.941 75.584C442.381 75.584 447.245 76.736 451.533 79.04C455.821 81.28 459.181 84.416 461.613 88.448C464.045 92.48 465.261 97.056 465.261 102.176C465.261 107.296 464.045 111.872 461.613 115.904C459.181 119.936 455.821 123.104 451.533 125.408C447.245 127.648 442.381 128.768 436.941 128.768ZM436.941 116.48C440.781 116.48 443.917 115.2 446.349 112.64C448.845 110.016 450.093 106.528 450.093 102.176C450.093 97.824 448.845 94.368 446.349 91.808C443.917 89.184 440.781 87.872 436.941 87.872C433.101 87.872 429.933 89.184 427.437 91.808C424.941 94.368 423.693 97.824 423.693 102.176C423.693 106.528 424.941 110.016 427.437 112.64C429.933 115.2 433.101 116.48 436.941 116.48ZM489.575 83.168C491.367 80.672 493.767 78.784 496.775 77.504C499.847 76.224 503.367 75.584 507.335 75.584V89.408C505.671 89.28 504.551 89.216 503.975 89.216C499.687 89.216 496.327 90.432 493.895 92.864C491.463 95.232 490.247 98.816 490.247 103.616V128H475.271V76.352H489.575V83.168ZM533.804 128.768C529.516 128.768 525.324 128.256 521.228 127.232C517.132 126.144 513.868 124.8 511.436 123.2L516.428 112.448C518.732 113.92 521.516 115.136 524.78 116.096C528.044 116.992 531.244 117.44 534.38 117.44C540.716 117.44 543.884 115.872 543.884 112.736C543.884 111.264 543.02 110.208 541.292 109.568C539.564 108.928 536.908 108.384 533.324 107.936C529.1 107.296 525.612 106.56 522.86 105.728C520.108 104.896 517.708 103.424 515.66 101.312C513.676 99.2 512.684 96.192 512.684 92.288C512.684 89.024 513.612 86.144 515.468 83.648C517.388 81.088 520.14 79.104 523.724 77.696C527.372 76.288 531.66 75.584 536.588 75.584C540.236 75.584 543.852 76 547.436 76.832C551.084 77.6 554.092 78.688 556.46 80.096L551.468 90.752C546.924 88.192 541.964 86.912 536.588 86.912C533.388 86.912 530.988 87.36 529.388 88.256C527.788 89.152 526.988 90.304 526.988 91.712C526.988 93.312 527.852 94.432 529.58 95.072C531.308 95.712 534.06 96.32 537.836 96.896C542.06 97.6 545.516 98.368 548.204 99.2C550.892 99.968 553.228 101.408 555.212 103.52C557.196 105.632 558.188 108.576 558.188 112.352C558.188 115.552 557.228 118.4 555.308 120.896C553.388 123.392 550.572 125.344 546.86 126.752C543.212 128.096 538.86 128.768 533.804 128.768ZM592.004 128.768C586.564 128.768 581.668 127.648 577.316 125.408C573.028 123.104 569.668 119.936 567.236 115.904C564.804 111.872 563.588 107.296 563.588 102.176C563.588 97.056 564.804 92.48 567.236 88.448C569.668 84.416 573.028 81.28 577.316 79.04C581.668 76.736 586.564 75.584 592.004 75.584C597.444 75.584 602.308 76.736 606.596 79.04C610.884 81.28 614.244 84.416 616.676 88.448C619.108 92.48 620.324 97.056 620.324 102.176C620.324 107.296 619.108 111.872 616.676 115.904C614.244 119.936 610.884 123.104 606.596 125.408C602.308 127.648 597.444 128.768 592.004 128.768ZM592.004 116.48C595.844 116.48 598.98 115.2 601.412 112.64C603.908 110.016 605.156 106.528 605.156 102.176C605.156 97.824 603.908 94.368 601.412 91.808C598.98 89.184 595.844 87.872 592.004 87.872C588.164 87.872 584.996 89.184 582.5 91.808C580.004 94.368 578.756 97.824 578.756 102.176C578.756 106.528 580.004 110.016 582.5 112.64C584.996 115.2 588.164 116.48 592.004 116.48Z" fill="black"/>
</g>
<defs>
<clipPath id="clip0_6_19">
<rect width="735" height="400" fill="white"/>
</clipPath>
</defs>
</svg>
